<svg width="32" height="32" viewBox="0 0 32 32" fill="none" xmlns="http://www.w3.org/2000/svg">
<g clip-path="url(#clip0_2596_78905)">
<path d="M10.601 1.91113H6.6709V8.26499H10.601V1.91113Z" fill="#ACABB1"/>
<path d="M10.601 1.91113H8.63867V8.26499H10.601V1.91113Z" fill="#898890"/>
<path d="M11.237 2.54402H6.0352C5.99688 2.54405 5.96005 2.52803 5.93244 2.49934C5.90484 2.47065 5.88863 2.43152 5.88721 2.39019V0.804693C5.88863 0.763363 5.90484 0.724234 5.93244 0.695546C5.96005 0.666857 5.99688 0.650851 6.0352 0.650879H11.237C11.2753 0.650851 11.3121 0.666857 11.3397 0.695546C11.3673 0.724234 11.3836 0.763363 11.385 0.804693V2.40203C11.3809 2.44125 11.3635 2.47746 11.3362 2.50368C11.3089 2.52989 11.2735 2.54426 11.237 2.54402Z" fill="#898890"/>
<path d="M27.4561 10.075L15.9453 1.79248L4.46191 10.075V29.7459H27.4287V10.075H27.4561Z" fill="white"/>
<path d="M27.4776 11.4534L15.8407 3.1709L13.9277 4.53751L23.6735 11.4534V31.1539H27.4776V11.4534Z" fill="#D6D5D5"/>
<path d="M2.33521 13.7843L15.7097 4.07013C15.7667 4.02991 15.8334 4.0085 15.9015 4.0085C15.9696 4.0085 16.0363 4.02991 16.0933 4.07013L29.4733 13.7843C29.6562 13.9204 29.8732 13.9933 30.0954 13.9933C30.3176 13.9933 30.5346 13.9204 30.7175 13.7843C30.8713 13.6708 30.9971 13.5185 31.084 13.3407C31.1709 13.1629 31.2163 12.9648 31.2163 12.7638C31.2163 12.5627 31.1709 12.3647 31.084 12.1869C30.9971 12.0091 30.8713 11.8568 30.7175 11.7433L16.0933 1.09435C16.0363 1.05413 15.9696 1.03271 15.9015 1.03271C15.8334 1.03271 15.7667 1.05413 15.7097 1.09435L1.09095 11.7433C0.936073 11.8559 0.809199 12.0079 0.721482 12.1858C0.633765 12.3637 0.587891 12.5622 0.587891 12.7638C0.587891 12.9653 0.633765 13.1638 0.721482 13.3418C0.809199 13.5197 0.936073 13.6717 1.09095 13.7843C1.27391 13.9204 1.49087 13.9933 1.71308 13.9933C1.93529 13.9933 2.15225 13.9204 2.33521 13.7843Z" fill="#ACABB1"/>
<path d="M13.5334 16.7427H7.46556C7.36038 16.7427 7.25943 16.7874 7.18455 16.8671C7.10966 16.9468 7.06687 17.0551 7.06543 17.1686V31.1542H13.9281V17.1686C13.9281 17.0557 13.8865 16.9473 13.8125 16.8674C13.7384 16.7875 13.6381 16.7427 13.5334 16.7427Z" fill="#ACABB1"/>
<path d="M24.3423 24.581H16.6685V19.9842C16.6684 19.9472 16.6753 19.9105 16.6886 19.8764C16.7019 19.8423 16.7213 19.8113 16.7458 19.7854C16.7703 19.7595 16.7994 19.7392 16.8313 19.7256C16.8632 19.7119 16.8973 19.7053 16.9316 19.7061H24.0573C24.1261 19.7061 24.1922 19.7352 24.2414 19.7872C24.2906 19.8392 24.319 19.9099 24.3204 19.9842V24.581H24.3423Z" fill="#ACABB1"/>
<path d="M24.0899 19.7358H20.6147V24.6107H24.3421V20.0139C24.3421 19.9412 24.3157 19.8713 24.2685 19.8193C24.2214 19.7674 24.1573 19.7374 24.0899 19.7358Z" fill="#898890"/>
<path d="M13.5387 16.7427H10.5952V31.1542H13.9279V17.1686C13.9279 17.0567 13.887 16.9492 13.8142 16.8695C13.7414 16.7898 13.6424 16.7442 13.5387 16.7427Z" fill="#898890"/>
<path d="M29.6809 29.2432H2.12081C1.86059 29.2432 1.61103 29.3547 1.42703 29.5533C1.24302 29.7519 1.13965 30.0213 1.13965 30.3021C1.13965 30.583 1.24302 30.8523 1.42703 31.0509C1.61103 31.2495 1.86059 31.3611 2.12081 31.3611H29.6809C29.9412 31.3611 30.1907 31.2495 30.3747 31.0509C30.5587 30.8523 30.6621 30.583 30.6621 30.3021C30.6621 30.0213 30.5587 29.7519 30.3747 29.5533C30.1907 29.3547 29.9412 29.2432 29.6809 29.2432Z" fill="#2D5871"/>
<path d="M30.6131 30.1365C30.6157 30.1149 30.6157 30.0931 30.6131 30.0715C30.6131 30.0715 30.6131 30.0419 30.6131 30.0241V29.9768C30.6055 29.944 30.5944 29.9123 30.5802 29.8821C30.5049 29.7057 30.3843 29.5563 30.2328 29.4514C30.0813 29.3466 29.9051 29.2908 29.7251 29.2905H26.8913V29.6573C26.8942 29.7671 26.8769 29.8764 26.8403 29.9788C26.8037 30.0813 26.7486 30.1749 26.6783 30.2541C26.6079 30.3334 26.5236 30.3968 26.4303 30.4406C26.337 30.4844 26.2366 30.5077 26.1349 30.5092H2.12116C1.94117 30.509 1.76501 30.4532 1.61349 30.3483C1.46196 30.2435 1.34141 30.0941 1.26607 29.9176C1.20862 30.0594 1.17876 30.2125 1.17837 30.3673C1.17396 30.6424 1.27065 30.9083 1.44732 31.1067C1.62398 31.3051 1.86625 31.42 2.12116 31.4262H29.8238H29.8841H29.9225H29.9718H30.0102H30.054H30.0924H30.1307L30.1746 31.3967H30.202L30.2459 31.3611H30.2733L30.3171 31.3197C30.4164 31.2175 30.4954 31.0945 30.5491 30.9581C30.6028 30.8218 30.6302 30.6751 30.6295 30.527C30.6392 30.3966 30.6337 30.2654 30.6131 30.1365Z" fill="#1D4859"/>
<path d="M30.7119 11.7437L16.0932 1.09483C16.0359 1.05548 15.9693 1.03493 15.9014 1.03566V3.9937C15.9697 3.99538 16.0362 4.01795 16.0932 4.05877L29.4677 13.773C29.6506 13.9091 29.8676 13.9819 30.0898 13.9819C30.312 13.9819 30.529 13.9091 30.7119 13.773C30.8645 13.6599 30.9894 13.5085 31.0756 13.3317C31.1618 13.1549 31.2069 12.9581 31.2069 12.7583C31.2069 12.5586 31.1618 12.3618 31.0756 12.185C30.9894 12.0082 30.8645 11.8568 30.7119 11.7437Z" fill="#898890"/>
<path d="M31.2561 11.1224L16.5662 0.585863C16.4076 0.472893 16.2217 0.412667 16.0317 0.412667C15.8417 0.412667 15.6559 0.472893 15.4973 0.585863L11.2986 3.59714V3.23035C11.3984 3.23113 11.4973 3.21058 11.5898 3.1699C11.6822 3.12922 11.7662 3.06921 11.837 2.99332C11.9078 2.91743 11.9641 2.82717 12.0024 2.72773C12.0408 2.62829 12.0605 2.52164 12.0605 2.41393V0.804755C12.0605 0.586658 11.9802 0.377494 11.8373 0.223277C11.6945 0.0690592 11.5007 -0.0175781 11.2986 -0.0175781H6.14067C6.04087 -0.017581 5.94206 0.00372656 5.84993 0.0451248C5.7578 0.0865231 5.67416 0.14719 5.60385 0.223629C5.53354 0.300068 5.47794 0.390773 5.44025 0.490509C5.40256 0.590245 5.38352 0.697044 5.38425 0.804755V2.39618C5.38425 2.61271 5.46394 2.82036 5.6058 2.97347C5.74766 3.12658 5.94006 3.2126 6.14067 3.2126V7.25918L0.774451 11.1046C0.584419 11.2414 0.421201 11.4172 0.294115 11.622C0.16703 11.8268 0.0785649 12.0566 0.0337739 12.2983C-0.0110171 12.5401 -0.0112594 12.7889 0.033063 13.0307C0.0773854 13.2726 0.165403 13.5026 0.292091 13.7077C0.418779 13.9128 0.581657 14.089 0.771423 14.2261C0.96119 14.3633 1.17413 14.4588 1.39808 14.5071C1.62204 14.5555 1.85262 14.5557 2.07667 14.5079C2.30072 14.46 2.51384 14.365 2.70388 14.2283L3.89881 13.3705V21.8009C3.89881 21.9766 3.96349 22.1451 4.07862 22.2694C4.19375 22.3937 4.3499 22.4635 4.51272 22.4635C4.67554 22.4635 4.83168 22.3937 4.94681 22.2694C5.06194 22.1451 5.12662 21.9766 5.12662 21.8009V12.5126L16.0016 4.71527L26.8765 12.5126V28.6398H14.6367V17.139C14.6367 16.8519 14.531 16.5765 14.3429 16.3735C14.1548 16.1704 13.8997 16.0564 13.6336 16.0564H7.68092C7.41489 16.0564 7.15975 16.1704 6.97164 16.3735C6.78352 16.5765 6.67784 16.8519 6.67784 17.139V28.6398H5.15951V25.9658C5.15951 25.8788 5.14363 25.7926 5.11278 25.7122C5.08193 25.6318 5.03671 25.5588 4.9797 25.4973C4.9227 25.4357 4.85502 25.3869 4.78054 25.3536C4.70605 25.3203 4.62622 25.3032 4.5456 25.3032C4.46498 25.3032 4.38515 25.3203 4.31067 25.3536C4.23619 25.3869 4.16851 25.4357 4.1115 25.4973C4.0545 25.5588 4.00928 25.6318 3.97843 25.7122C3.94757 25.7926 3.93169 25.8788 3.93169 25.9658V28.6398H2.28729C1.87443 28.6398 1.47848 28.8169 1.18655 29.132C0.894608 29.447 0.730599 29.8744 0.730599 30.32C0.730599 30.7656 0.894608 31.193 1.18655 31.5081C1.47848 31.8232 1.87443 32.0002 2.28729 32.0002H29.7926C30.2055 32.0002 30.6014 31.8232 30.8934 31.5081C31.1853 31.193 31.3493 30.7656 31.3493 30.32C31.3493 29.8744 31.1853 29.447 30.8934 29.132C30.6014 28.8169 30.2055 28.6398 29.7926 28.6398H28.1482V13.3882L29.3486 14.2461C29.6108 14.4326 29.9148 14.5392 30.2285 14.5546C30.5422 14.5701 30.8539 14.4937 31.1307 14.3337C31.4075 14.1738 31.6392 13.936 31.8012 13.6457C31.9631 13.3553 32.0494 13.0231 32.0509 12.6842C32.0493 12.3731 31.9758 12.0672 31.837 11.7945C31.6982 11.5218 31.4986 11.2908 31.2561 11.1224ZM6.62303 1.31945H10.8491V1.91106H6.62303V1.31945ZM10.0763 3.23035V4.47864L7.38493 6.39544V3.23035H10.0763ZM7.88374 17.3757H13.4144V28.6162H7.90018L7.88374 17.3757ZM29.7707 29.9591C29.8584 29.9607 29.9421 29.9994 30.0036 30.0669C30.0651 30.1344 30.0996 30.2253 30.0996 30.32C30.1003 30.3671 30.0923 30.4139 30.0761 30.4577C30.0599 30.5014 30.0358 30.5412 30.0052 30.5748C29.9746 30.6084 29.9381 30.6351 29.8978 30.6533C29.8576 30.6715 29.8143 30.6809 29.7707 30.6809H2.28182C2.23791 30.6809 2.19443 30.6716 2.15386 30.6534C2.1133 30.6353 2.07644 30.6087 2.04539 30.5752C2.01434 30.5417 1.98971 30.5019 1.97291 30.4581C1.9561 30.4143 1.94746 30.3674 1.94746 30.32C1.94746 30.2243 1.98268 30.1325 2.04539 30.0648C2.10809 29.9971 2.19314 29.9591 2.28182 29.9591H29.7707ZM30.5655 13.1516C30.4821 13.2035 30.3876 13.2308 30.2914 13.2308C30.1952 13.2308 30.1007 13.2035 30.0173 13.1516L27.8741 11.6075L16.5771 3.5084C16.4185 3.39543 16.2327 3.33521 16.0427 3.33521C15.8527 3.33521 15.6669 3.39543 15.5083 3.5084L4.21672 11.6075L2.06804 13.1457C1.99015 13.2015 1.89965 13.2334 1.80624 13.238C1.71283 13.2425 1.62004 13.2195 1.5378 13.1715C1.45556 13.1235 1.38698 13.0522 1.33941 12.9653C1.29184 12.8784 1.26708 12.7792 1.26777 12.6783C1.26706 12.5867 1.28779 12.4964 1.32803 12.4157C1.36827 12.335 1.42673 12.2666 1.49799 12.2168L7.13827 8.17618L11.041 5.37787L16.0454 1.79274L30.5929 12.2228C30.6634 12.2733 30.7214 12.3419 30.7615 12.4224C30.8017 12.5029 30.8228 12.5928 30.8231 12.6842C30.8197 12.7771 30.7962 12.8678 30.7542 12.949C30.7123 13.0302 30.6533 13.0996 30.5819 13.1516H30.5655Z" fill="black"/>
<path d="M24.0141 19.0733H16.8884C16.6596 19.0717 16.4396 19.1679 16.2763 19.3408C16.113 19.5137 16.0198 19.7493 16.0169 19.9962V23.9245H15.6989C15.6153 23.9159 15.5309 23.9262 15.4512 23.9548C15.3715 23.9834 15.2982 24.0297 15.236 24.0907C15.1738 24.1517 15.1241 24.2261 15.0901 24.309C15.0561 24.3919 15.0386 24.4816 15.0386 24.5723C15.0386 24.663 15.0561 24.7527 15.0901 24.8356C15.1241 24.9185 15.1738 24.9929 15.236 25.0539C15.2982 25.1149 15.3715 25.1612 15.4512 25.1898C15.5309 25.2184 15.6153 25.2287 15.6989 25.2201H25.2803C25.364 25.2287 25.4483 25.2184 25.5281 25.1898C25.6078 25.1612 25.6811 25.1149 25.7433 25.0539C25.8054 24.9929 25.8551 24.9185 25.8891 24.8356C25.9231 24.7527 25.9407 24.663 25.9407 24.5723C25.9407 24.4816 25.9231 24.3919 25.8891 24.309C25.8551 24.2261 25.8054 24.1517 25.7433 24.0907C25.6811 24.0297 25.6078 23.9834 25.5281 23.9548C25.4483 23.9262 25.364 23.9159 25.2803 23.9245H24.8911V19.9962C24.8897 19.8735 24.8659 19.7522 24.821 19.6394C24.7762 19.5266 24.7112 19.4244 24.6297 19.3387C24.5483 19.253 24.452 19.1855 24.3464 19.1399C24.2408 19.0944 24.1279 19.0718 24.0141 19.0733ZM23.6633 23.9245H17.2556V20.3749H23.6633V23.9245Z" fill="black"/>
</g>
<defs>
<clipPath id="clip0_2596_78905">
<rect width="32" height="32" fill="white"/>
</clipPath>
</defs>
</svg>
